<mxfile host="app.diagrams.net" modified="2023-12-07T10:17:04.212Z" agent="Mozilla/5.0 (Windows NT 10.0; Win64; x64) AppleWebKit/537.36 (KHTML, like Gecko) Chrome/119.0.0.0 Safari/537.36" etag="K5aWaiOLM2A5XhXgdBsL" version="22.1.5" type="device">
  <diagram name="Page-1" id="74e2e168-ea6b-b213-b513-2b3c1d86103e">
    <mxGraphModel dx="1434" dy="1600" grid="0" gridSize="10" guides="1" tooltips="1" connect="1" arrows="1" fold="1" page="1" pageScale="1" pageWidth="1100" pageHeight="850" background="none" math="0" shadow="0">
      <root>
        <mxCell id="0" />
        <mxCell id="1" parent="0" />
        <mxCell id="77e6c97f196da883-4" value="后台" style="swimlane;html=1;startSize=20;movable=1;resizable=1;rotatable=1;deletable=1;editable=1;locked=0;connectable=1;" parent="1" vertex="1">
          <mxGeometry x="900" y="-381" width="180" height="1200" as="geometry" />
        </mxCell>
        <mxCell id="uXNDKnU3GyG-U2kN166Y-2" value="后台" style="swimlane;html=1;startSize=20;movable=1;resizable=1;rotatable=1;deletable=1;editable=1;locked=0;connectable=1;" parent="1" vertex="1">
          <mxGeometry x="900" y="-381" width="180" height="1200" as="geometry" />
        </mxCell>
        <mxCell id="uXNDKnU3GyG-U2kN166Y-12" value="前端" style="swimlane;html=1;startSize=20;swimlaneFillColor=none;container=0;movable=0;resizable=0;rotatable=0;deletable=0;editable=0;locked=1;connectable=0;" parent="1" vertex="1">
          <mxGeometry x="360" y="-381" width="540" height="1200" as="geometry" />
        </mxCell>
        <mxCell id="p3CJ94JeE1_F0wyJ4SOm-1" value="&lt;font style=&quot;font-size: 14px;&quot;&gt;风险单工单交互流程&lt;/font&gt;" style="swimlane;html=1;childLayout=stackLayout;startSize=20;rounded=0;shadow=0;labelBackgroundColor=none;strokeWidth=1;fontFamily=Verdana;fontSize=8;align=center;swimlaneFillColor=none;movable=0;resizable=0;rotatable=0;deletable=0;editable=0;locked=1;connectable=0;container=0;" parent="1" vertex="1">
          <mxGeometry x="180" y="-401" width="900" height="1221" as="geometry">
            <mxRectangle x="220" y="-401" width="180" height="30" as="alternateBounds" />
          </mxGeometry>
        </mxCell>
        <mxCell id="p3CJ94JeE1_F0wyJ4SOm-2" value="后台" style="swimlane;html=1;startSize=20;movable=0;resizable=0;rotatable=0;deletable=0;editable=0;locked=1;connectable=0;" parent="1" vertex="1">
          <mxGeometry x="900" y="-381" width="180" height="1200" as="geometry" />
        </mxCell>
        <mxCell id="1Y5lMBVy4oIv2StOAmjG-99" value="" style="group" parent="p3CJ94JeE1_F0wyJ4SOm-2" vertex="1" connectable="0">
          <mxGeometry x="44.5" y="54" width="91" height="128" as="geometry" />
        </mxCell>
        <mxCell id="1Y5lMBVy4oIv2StOAmjG-18" value="查询数据" style="rounded=1;whiteSpace=wrap;html=1;shadow=0;labelBackgroundColor=none;strokeWidth=1;fontFamily=Verdana;fontSize=8;align=center;" parent="1Y5lMBVy4oIv2StOAmjG-99" vertex="1">
          <mxGeometry width="91" height="57" as="geometry" />
        </mxCell>
        <mxCell id="1Y5lMBVy4oIv2StOAmjG-20" value="查询数据" style="rounded=1;whiteSpace=wrap;html=1;shadow=0;labelBackgroundColor=none;strokeWidth=1;fontFamily=Verdana;fontSize=8;align=center;" parent="1Y5lMBVy4oIv2StOAmjG-99" vertex="1">
          <mxGeometry y="71" width="91" height="57" as="geometry" />
        </mxCell>
        <mxCell id="77e6c97f196da883-2" value="用户" style="swimlane;html=1;startSize=20;container=0;movable=0;resizable=0;rotatable=0;deletable=0;editable=0;locked=1;connectable=0;" parent="1" vertex="1">
          <mxGeometry x="180" y="-381" width="180" height="1201" as="geometry" />
        </mxCell>
        <mxCell id="uXNDKnU3GyG-U2kN166Y-1" value="&lt;font style=&quot;font-size: 14px;&quot;&gt;风险单工单交互流程&lt;/font&gt;" style="swimlane;html=1;childLayout=stackLayout;startSize=20;rounded=0;shadow=0;labelBackgroundColor=none;strokeWidth=1;fontFamily=Verdana;fontSize=8;align=center;swimlaneFillColor=none;movable=0;resizable=0;rotatable=0;deletable=0;editable=0;locked=1;connectable=0;container=1;" parent="1" vertex="1">
          <mxGeometry x="180" y="-402" width="900" height="1221" as="geometry">
            <mxRectangle x="220" y="-401" width="180" height="30" as="alternateBounds" />
          </mxGeometry>
        </mxCell>
        <mxCell id="1Y5lMBVy4oIv2StOAmjG-46" value="存储数据" style="rounded=1;whiteSpace=wrap;html=1;shadow=0;labelBackgroundColor=none;strokeWidth=1;fontFamily=Verdana;fontSize=8;align=center;" parent="1" vertex="1">
          <mxGeometry x="944.5" y="-109" width="91" height="57" as="geometry" />
        </mxCell>
        <mxCell id="1Y5lMBVy4oIv2StOAmjG-61" value="完成一级审批" style="whiteSpace=wrap;html=1;labelBackgroundColor=none;labelBorderColor=none;fillColor=#d5e8d4;strokeColor=#82b366;" parent="1" vertex="1">
          <mxGeometry x="721" y="-28" width="106" height="46" as="geometry" />
        </mxCell>
        <mxCell id="1Y5lMBVy4oIv2StOAmjG-62" style="edgeStyle=orthogonalEdgeStyle;rounded=0;orthogonalLoop=1;jettySize=auto;html=1;exitX=0.5;exitY=1;exitDx=0;exitDy=0;entryX=1.009;entryY=0.609;entryDx=0;entryDy=0;entryPerimeter=0;" parent="1" source="1Y5lMBVy4oIv2StOAmjG-46" target="1Y5lMBVy4oIv2StOAmjG-61" edge="1">
          <mxGeometry relative="1" as="geometry" />
        </mxCell>
        <mxCell id="itscuA_wcLQaMDWyqK8Y-5" value="响应成功" style="edgeLabel;html=1;align=center;verticalAlign=middle;resizable=0;points=[];" parent="1Y5lMBVy4oIv2StOAmjG-62" vertex="1" connectable="0">
          <mxGeometry x="-0.76" relative="1" as="geometry">
            <mxPoint as="offset" />
          </mxGeometry>
        </mxCell>
        <mxCell id="1Y5lMBVy4oIv2StOAmjG-67" value="打开二级审批" style="rounded=1;whiteSpace=wrap;html=1;shadow=0;labelBackgroundColor=none;strokeWidth=1;fontFamily=Verdana;fontSize=8;align=center;fillColor=#dae8fc;strokeColor=#6c8ebf;" parent="1" vertex="1">
          <mxGeometry x="220" y="157" width="100" height="57" as="geometry" />
        </mxCell>
        <mxCell id="1Y5lMBVy4oIv2StOAmjG-75" value="" style="group" parent="1" vertex="1" connectable="0">
          <mxGeometry x="424" y="157" width="143" height="225" as="geometry" />
        </mxCell>
        <mxCell id="1Y5lMBVy4oIv2StOAmjG-69" value="" style="whiteSpace=wrap;html=1;" parent="1Y5lMBVy4oIv2StOAmjG-75" vertex="1">
          <mxGeometry width="143" height="225" as="geometry" />
        </mxCell>
        <mxCell id="1Y5lMBVy4oIv2StOAmjG-70" value="基础信息节点&lt;br&gt;(node1)" style="rounded=0;whiteSpace=wrap;html=1;shadow=0;labelBackgroundColor=none;strokeWidth=1;fontFamily=Verdana;fontSize=8;align=center;" parent="1Y5lMBVy4oIv2StOAmjG-75" vertex="1">
          <mxGeometry x="24" y="7" width="91" height="57" as="geometry" />
        </mxCell>
        <mxCell id="1Y5lMBVy4oIv2StOAmjG-71" value="一级审批节点&lt;br&gt;(node2)" style="rounded=0;whiteSpace=wrap;html=1;shadow=0;labelBackgroundColor=none;strokeWidth=1;fontFamily=Verdana;fontSize=8;align=center;" parent="1Y5lMBVy4oIv2StOAmjG-75" vertex="1">
          <mxGeometry x="25" y="76" width="91" height="57" as="geometry" />
        </mxCell>
        <mxCell id="1Y5lMBVy4oIv2StOAmjG-72" value="同意" style="whiteSpace=wrap;html=1;fillColor=#ffe6cc;strokeColor=#d79b00;" parent="1Y5lMBVy4oIv2StOAmjG-75" vertex="1">
          <mxGeometry x="79" y="199" width="50.5" height="20" as="geometry" />
        </mxCell>
        <mxCell id="1Y5lMBVy4oIv2StOAmjG-73" value="二级审批节点&lt;br&gt;(node3)" style="rounded=0;whiteSpace=wrap;html=1;shadow=0;labelBackgroundColor=none;strokeWidth=1;fontFamily=Verdana;fontSize=8;align=center;fillColor=#ffe6cc;strokeColor=#d79b00;" parent="1Y5lMBVy4oIv2StOAmjG-75" vertex="1">
          <mxGeometry x="25" y="142" width="90" height="52" as="geometry" />
        </mxCell>
        <mxCell id="1Y5lMBVy4oIv2StOAmjG-74" value="不同意" style="whiteSpace=wrap;html=1;fillColor=#ffe6cc;strokeColor=#d79b00;" parent="1Y5lMBVy4oIv2StOAmjG-75" vertex="1">
          <mxGeometry x="16" y="199" width="50.5" height="20" as="geometry" />
        </mxCell>
        <mxCell id="1Y5lMBVy4oIv2StOAmjG-133" value="&lt;font color=&quot;#ff8000&quot; style=&quot;font-size: 9px;&quot;&gt;回填审批内容&lt;/font&gt;" style="text;html=1;align=center;verticalAlign=middle;resizable=0;points=[];autosize=1;strokeColor=none;fillColor=none;" parent="1Y5lMBVy4oIv2StOAmjG-75" vertex="1">
          <mxGeometry x="35" y="110" width="72" height="26" as="geometry" />
        </mxCell>
        <mxCell id="1Y5lMBVy4oIv2StOAmjG-78" style="edgeStyle=orthogonalEdgeStyle;rounded=0;orthogonalLoop=1;jettySize=auto;html=1;exitX=1;exitY=0.5;exitDx=0;exitDy=0;entryX=0.003;entryY=0.128;entryDx=0;entryDy=0;entryPerimeter=0;" parent="1" source="1Y5lMBVy4oIv2StOAmjG-67" target="1Y5lMBVy4oIv2StOAmjG-69" edge="1">
          <mxGeometry relative="1" as="geometry" />
        </mxCell>
        <mxCell id="1Y5lMBVy4oIv2StOAmjG-79" value="查询数据" style="rounded=1;whiteSpace=wrap;html=1;shadow=0;labelBackgroundColor=none;strokeWidth=1;fontFamily=Verdana;fontSize=8;align=center;" parent="1" vertex="1">
          <mxGeometry x="944.5" y="164" width="91" height="57" as="geometry" />
        </mxCell>
        <mxCell id="1Y5lMBVy4oIv2StOAmjG-80" value="查询数据" style="rounded=1;whiteSpace=wrap;html=1;shadow=0;labelBackgroundColor=none;strokeWidth=1;fontFamily=Verdana;fontSize=8;align=center;" parent="1" vertex="1">
          <mxGeometry x="944.5" y="233" width="91" height="57" as="geometry" />
        </mxCell>
        <mxCell id="1Y5lMBVy4oIv2StOAmjG-83" style="edgeStyle=orthogonalEdgeStyle;rounded=0;orthogonalLoop=1;jettySize=auto;html=1;exitX=1;exitY=0.5;exitDx=0;exitDy=0;entryX=0;entryY=0.5;entryDx=0;entryDy=0;startArrow=classic;startFill=1;" parent="1" source="1Y5lMBVy4oIv2StOAmjG-71" target="1Y5lMBVy4oIv2StOAmjG-80" edge="1">
          <mxGeometry relative="1" as="geometry" />
        </mxCell>
        <mxCell id="1Y5lMBVy4oIv2StOAmjG-86" value="查询数据&lt;br style=&quot;border-color: var(--border-color);&quot;&gt;解析数据" style="edgeLabel;html=1;align=center;verticalAlign=middle;resizable=0;points=[];" parent="1Y5lMBVy4oIv2StOAmjG-83" vertex="1" connectable="0">
          <mxGeometry x="-0.0013" y="-2" relative="1" as="geometry">
            <mxPoint as="offset" />
          </mxGeometry>
        </mxCell>
        <mxCell id="1Y5lMBVy4oIv2StOAmjG-84" style="edgeStyle=orthogonalEdgeStyle;rounded=0;orthogonalLoop=1;jettySize=auto;html=1;exitX=1;exitY=0.5;exitDx=0;exitDy=0;entryX=0;entryY=0.5;entryDx=0;entryDy=0;startArrow=classic;startFill=1;" parent="1" source="1Y5lMBVy4oIv2StOAmjG-70" target="1Y5lMBVy4oIv2StOAmjG-79" edge="1">
          <mxGeometry relative="1" as="geometry" />
        </mxCell>
        <mxCell id="1Y5lMBVy4oIv2StOAmjG-85" value="查询数据&lt;br style=&quot;border-color: var(--border-color);&quot;&gt;解析数据" style="edgeLabel;html=1;align=center;verticalAlign=middle;resizable=0;points=[];" parent="1Y5lMBVy4oIv2StOAmjG-84" vertex="1" connectable="0">
          <mxGeometry x="0.009" y="1" relative="1" as="geometry">
            <mxPoint as="offset" />
          </mxGeometry>
        </mxCell>
        <mxCell id="1Y5lMBVy4oIv2StOAmjG-88" style="edgeStyle=orthogonalEdgeStyle;rounded=0;orthogonalLoop=1;jettySize=auto;html=1;exitX=1;exitY=0.5;exitDx=0;exitDy=0;" parent="1" source="1Y5lMBVy4oIv2StOAmjG-87" target="1Y5lMBVy4oIv2StOAmjG-73" edge="1">
          <mxGeometry relative="1" as="geometry" />
        </mxCell>
        <mxCell id="1Y5lMBVy4oIv2StOAmjG-87" value="审批工单" style="rounded=1;whiteSpace=wrap;html=1;shadow=0;labelBackgroundColor=none;strokeWidth=1;fontFamily=Verdana;fontSize=8;align=center;fillColor=#dae8fc;strokeColor=#6c8ebf;" parent="1" vertex="1">
          <mxGeometry x="221" y="296.5" width="100" height="57" as="geometry" />
        </mxCell>
        <mxCell id="1Y5lMBVy4oIv2StOAmjG-91" value="" style="shape=crossbar;whiteSpace=wrap;html=1;rounded=1;" parent="1" vertex="1">
          <mxGeometry x="180" y="105" width="899" height="20" as="geometry" />
        </mxCell>
        <mxCell id="itscuA_wcLQaMDWyqK8Y-10" style="edgeStyle=orthogonalEdgeStyle;rounded=0;orthogonalLoop=1;jettySize=auto;html=1;exitX=0.5;exitY=1;exitDx=0;exitDy=0;entryX=1;entryY=0.5;entryDx=0;entryDy=0;" parent="1" source="1Y5lMBVy4oIv2StOAmjG-93" target="1Y5lMBVy4oIv2StOAmjG-95" edge="1">
          <mxGeometry relative="1" as="geometry" />
        </mxCell>
        <mxCell id="1Y5lMBVy4oIv2StOAmjG-93" value="存储数据" style="rounded=1;whiteSpace=wrap;html=1;shadow=0;labelBackgroundColor=none;strokeWidth=1;fontFamily=Verdana;fontSize=8;align=center;" parent="1" vertex="1">
          <mxGeometry x="944.5" y="330" width="91" height="57" as="geometry" />
        </mxCell>
        <mxCell id="1Y5lMBVy4oIv2StOAmjG-95" value="完成二级审批" style="whiteSpace=wrap;html=1;labelBackgroundColor=none;labelBorderColor=none;fillColor=#d5e8d4;strokeColor=#82b366;" parent="1" vertex="1">
          <mxGeometry x="743" y="398" width="106" height="46" as="geometry" />
        </mxCell>
        <mxCell id="1Y5lMBVy4oIv2StOAmjG-98" value="" style="group" parent="1" vertex="1" connectable="0">
          <mxGeometry x="220" y="-334" width="346" height="169" as="geometry" />
        </mxCell>
        <mxCell id="77e6c97f196da883-8" value="首次打开工单" style="rounded=1;whiteSpace=wrap;html=1;shadow=0;labelBackgroundColor=none;strokeWidth=1;fontFamily=Verdana;fontSize=8;align=center;fillColor=#dae8fc;strokeColor=#6c8ebf;" parent="1Y5lMBVy4oIv2StOAmjG-98" vertex="1">
          <mxGeometry y="7" width="100" height="57" as="geometry" />
        </mxCell>
        <mxCell id="1Y5lMBVy4oIv2StOAmjG-11" style="edgeStyle=orthogonalEdgeStyle;rounded=0;orthogonalLoop=1;jettySize=auto;html=1;exitX=1;exitY=0.5;exitDx=0;exitDy=0;entryX=0.012;entryY=0.213;entryDx=0;entryDy=0;entryPerimeter=0;" parent="1Y5lMBVy4oIv2StOAmjG-98" source="77e6c97f196da883-8" target="1Y5lMBVy4oIv2StOAmjG-10" edge="1">
          <mxGeometry relative="1" as="geometry" />
        </mxCell>
        <mxCell id="1Y5lMBVy4oIv2StOAmjG-40" value="审批工单" style="rounded=1;whiteSpace=wrap;html=1;shadow=0;labelBackgroundColor=none;strokeWidth=1;fontFamily=Verdana;fontSize=8;align=center;fillColor=#dae8fc;strokeColor=#6c8ebf;" parent="1Y5lMBVy4oIv2StOAmjG-98" vertex="1">
          <mxGeometry x="1" y="79" width="100" height="57" as="geometry" />
        </mxCell>
        <mxCell id="1Y5lMBVy4oIv2StOAmjG-44" value="" style="group;fillColor=#ffe6cc;strokeColor=#d79b00;" parent="1Y5lMBVy4oIv2StOAmjG-98" vertex="1" connectable="0">
          <mxGeometry x="203" width="143" height="169" as="geometry" />
        </mxCell>
        <mxCell id="1Y5lMBVy4oIv2StOAmjG-10" value="" style="whiteSpace=wrap;html=1;" parent="1Y5lMBVy4oIv2StOAmjG-44" vertex="1">
          <mxGeometry width="143" height="169" as="geometry" />
        </mxCell>
        <mxCell id="hpUDahn8ZHrhIAk1TSXe-18" value="基础信息节点&lt;br&gt;(node1)" style="rounded=0;whiteSpace=wrap;html=1;shadow=0;labelBackgroundColor=none;strokeWidth=1;fontFamily=Verdana;fontSize=8;align=center;" parent="1Y5lMBVy4oIv2StOAmjG-44" vertex="1">
          <mxGeometry x="24" y="7" width="91" height="57" as="geometry" />
        </mxCell>
        <mxCell id="1Y5lMBVy4oIv2StOAmjG-9" value="一级审批节点&lt;br&gt;(node2)" style="rounded=0;whiteSpace=wrap;html=1;shadow=0;labelBackgroundColor=none;strokeWidth=1;fontFamily=Verdana;fontSize=8;align=center;fillColor=#ffe6cc;strokeColor=#d79b00;" parent="1Y5lMBVy4oIv2StOAmjG-44" vertex="1">
          <mxGeometry x="25" y="78" width="91" height="57" as="geometry" />
        </mxCell>
        <mxCell id="1Y5lMBVy4oIv2StOAmjG-12" value="提交" style="whiteSpace=wrap;html=1;fillColor=#ffe6cc;strokeColor=#d79b00;" parent="1Y5lMBVy4oIv2StOAmjG-44" vertex="1">
          <mxGeometry x="14" y="142" width="120" height="20" as="geometry" />
        </mxCell>
        <mxCell id="1Y5lMBVy4oIv2StOAmjG-41" style="edgeStyle=orthogonalEdgeStyle;rounded=0;orthogonalLoop=1;jettySize=auto;html=1;exitX=1;exitY=0.5;exitDx=0;exitDy=0;entryX=0;entryY=0.5;entryDx=0;entryDy=0;" parent="1Y5lMBVy4oIv2StOAmjG-98" source="1Y5lMBVy4oIv2StOAmjG-40" target="1Y5lMBVy4oIv2StOAmjG-9" edge="1">
          <mxGeometry relative="1" as="geometry" />
        </mxCell>
        <mxCell id="1Y5lMBVy4oIv2StOAmjG-38" style="rounded=0;orthogonalLoop=1;jettySize=auto;html=1;exitX=1;exitY=0.5;exitDx=0;exitDy=0;startArrow=classic;startFill=1;" parent="1" source="hpUDahn8ZHrhIAk1TSXe-18" target="1Y5lMBVy4oIv2StOAmjG-18" edge="1">
          <mxGeometry relative="1" as="geometry" />
        </mxCell>
        <mxCell id="1Y5lMBVy4oIv2StOAmjG-56" value="查询并解析数据" style="edgeLabel;html=1;align=center;verticalAlign=middle;resizable=0;points=[];" parent="1Y5lMBVy4oIv2StOAmjG-38" vertex="1" connectable="0">
          <mxGeometry x="-0.0029" relative="1" as="geometry">
            <mxPoint as="offset" />
          </mxGeometry>
        </mxCell>
        <mxCell id="1Y5lMBVy4oIv2StOAmjG-39" style="edgeStyle=orthogonalEdgeStyle;rounded=0;orthogonalLoop=1;jettySize=auto;html=1;exitX=1;exitY=0.5;exitDx=0;exitDy=0;entryX=0;entryY=0.5;entryDx=0;entryDy=0;startArrow=classic;startFill=1;" parent="1" source="1Y5lMBVy4oIv2StOAmjG-9" target="1Y5lMBVy4oIv2StOAmjG-20" edge="1">
          <mxGeometry relative="1" as="geometry" />
        </mxCell>
        <mxCell id="1Y5lMBVy4oIv2StOAmjG-55" value="查询并解析数据" style="edgeLabel;html=1;align=center;verticalAlign=middle;resizable=0;points=[];" parent="1Y5lMBVy4oIv2StOAmjG-39" vertex="1" connectable="0">
          <mxGeometry x="0.0048" y="2" relative="1" as="geometry">
            <mxPoint as="offset" />
          </mxGeometry>
        </mxCell>
        <mxCell id="1Y5lMBVy4oIv2StOAmjG-100" value="" style="group" parent="1" vertex="1" connectable="0">
          <mxGeometry x="220" y="480" width="346" height="169" as="geometry" />
        </mxCell>
        <mxCell id="1Y5lMBVy4oIv2StOAmjG-101" value="再次一级审批" style="rounded=1;whiteSpace=wrap;html=1;shadow=0;labelBackgroundColor=none;strokeWidth=1;fontFamily=Verdana;fontSize=8;align=center;fillColor=#dae8fc;strokeColor=#6c8ebf;" parent="1Y5lMBVy4oIv2StOAmjG-100" vertex="1">
          <mxGeometry y="7" width="100" height="57" as="geometry" />
        </mxCell>
        <mxCell id="1Y5lMBVy4oIv2StOAmjG-102" style="edgeStyle=orthogonalEdgeStyle;rounded=0;orthogonalLoop=1;jettySize=auto;html=1;exitX=1;exitY=0.5;exitDx=0;exitDy=0;entryX=0.012;entryY=0.213;entryDx=0;entryDy=0;entryPerimeter=0;" parent="1Y5lMBVy4oIv2StOAmjG-100" source="1Y5lMBVy4oIv2StOAmjG-101" target="1Y5lMBVy4oIv2StOAmjG-105" edge="1">
          <mxGeometry relative="1" as="geometry" />
        </mxCell>
        <mxCell id="1Y5lMBVy4oIv2StOAmjG-103" value="审批工单" style="rounded=1;whiteSpace=wrap;html=1;shadow=0;labelBackgroundColor=none;strokeWidth=1;fontFamily=Verdana;fontSize=8;align=center;fillColor=#dae8fc;strokeColor=#6c8ebf;" parent="1Y5lMBVy4oIv2StOAmjG-100" vertex="1">
          <mxGeometry x="1" y="79" width="100" height="57" as="geometry" />
        </mxCell>
        <mxCell id="1Y5lMBVy4oIv2StOAmjG-104" value="" style="group;fillColor=#ffe6cc;strokeColor=#d79b00;" parent="1Y5lMBVy4oIv2StOAmjG-100" vertex="1" connectable="0">
          <mxGeometry x="203" width="143" height="169" as="geometry" />
        </mxCell>
        <mxCell id="1Y5lMBVy4oIv2StOAmjG-105" value="" style="whiteSpace=wrap;html=1;" parent="1Y5lMBVy4oIv2StOAmjG-104" vertex="1">
          <mxGeometry width="143" height="169" as="geometry" />
        </mxCell>
        <mxCell id="1Y5lMBVy4oIv2StOAmjG-106" value="基础信息节点&lt;br&gt;(node1)" style="rounded=0;whiteSpace=wrap;html=1;shadow=0;labelBackgroundColor=none;strokeWidth=1;fontFamily=Verdana;fontSize=8;align=center;" parent="1Y5lMBVy4oIv2StOAmjG-104" vertex="1">
          <mxGeometry x="24" y="7" width="91" height="57" as="geometry" />
        </mxCell>
        <mxCell id="1Y5lMBVy4oIv2StOAmjG-107" value="一级审批节点&lt;br&gt;(node2)" style="rounded=0;whiteSpace=wrap;html=1;shadow=0;labelBackgroundColor=none;strokeWidth=1;fontFamily=Verdana;fontSize=8;align=center;fillColor=#ffe6cc;strokeColor=#d79b00;" parent="1Y5lMBVy4oIv2StOAmjG-104" vertex="1">
          <mxGeometry x="25" y="78" width="91" height="57" as="geometry" />
        </mxCell>
        <mxCell id="1Y5lMBVy4oIv2StOAmjG-108" value="提交" style="whiteSpace=wrap;html=1;fillColor=#ffe6cc;strokeColor=#d79b00;" parent="1Y5lMBVy4oIv2StOAmjG-104" vertex="1">
          <mxGeometry x="14" y="142" width="120" height="20" as="geometry" />
        </mxCell>
        <mxCell id="1Y5lMBVy4oIv2StOAmjG-132" value="&lt;font color=&quot;#ff8000&quot; style=&quot;font-size: 9px;&quot;&gt;回填上一级审批意见&lt;/font&gt;" style="text;html=1;align=center;verticalAlign=middle;resizable=0;points=[];autosize=1;strokeColor=none;fillColor=none;" parent="1Y5lMBVy4oIv2StOAmjG-104" vertex="1">
          <mxGeometry x="22" y="111" width="99" height="26" as="geometry" />
        </mxCell>
        <mxCell id="1Y5lMBVy4oIv2StOAmjG-109" style="edgeStyle=orthogonalEdgeStyle;rounded=0;orthogonalLoop=1;jettySize=auto;html=1;exitX=1;exitY=0.5;exitDx=0;exitDy=0;entryX=0;entryY=0.5;entryDx=0;entryDy=0;" parent="1Y5lMBVy4oIv2StOAmjG-100" source="1Y5lMBVy4oIv2StOAmjG-103" target="1Y5lMBVy4oIv2StOAmjG-107" edge="1">
          <mxGeometry relative="1" as="geometry" />
        </mxCell>
        <mxCell id="1Y5lMBVy4oIv2StOAmjG-110" value="" style="shape=crossbar;whiteSpace=wrap;html=1;rounded=1;" parent="1" vertex="1">
          <mxGeometry x="180" y="451" width="900" height="20" as="geometry" />
        </mxCell>
        <mxCell id="1Y5lMBVy4oIv2StOAmjG-124" value="" style="group" parent="1" vertex="1" connectable="0">
          <mxGeometry x="943.5" y="486" width="91" height="128" as="geometry" />
        </mxCell>
        <mxCell id="1Y5lMBVy4oIv2StOAmjG-125" value="查询数据" style="rounded=1;whiteSpace=wrap;html=1;shadow=0;labelBackgroundColor=none;strokeWidth=1;fontFamily=Verdana;fontSize=8;align=center;" parent="1Y5lMBVy4oIv2StOAmjG-124" vertex="1">
          <mxGeometry width="91" height="57" as="geometry" />
        </mxCell>
        <mxCell id="1Y5lMBVy4oIv2StOAmjG-126" value="查询数据" style="rounded=1;whiteSpace=wrap;html=1;shadow=0;labelBackgroundColor=none;strokeWidth=1;fontFamily=Verdana;fontSize=8;align=center;" parent="1Y5lMBVy4oIv2StOAmjG-124" vertex="1">
          <mxGeometry y="71" width="91" height="57" as="geometry" />
        </mxCell>
        <mxCell id="1Y5lMBVy4oIv2StOAmjG-127" style="rounded=0;orthogonalLoop=1;jettySize=auto;html=1;exitX=1;exitY=0.5;exitDx=0;exitDy=0;startArrow=classic;startFill=1;" parent="1" target="1Y5lMBVy4oIv2StOAmjG-125" edge="1">
          <mxGeometry relative="1" as="geometry">
            <mxPoint x="537" y="515" as="sourcePoint" />
          </mxGeometry>
        </mxCell>
        <mxCell id="1Y5lMBVy4oIv2StOAmjG-128" value="查询并解析数据" style="edgeLabel;html=1;align=center;verticalAlign=middle;resizable=0;points=[];" parent="1Y5lMBVy4oIv2StOAmjG-127" vertex="1" connectable="0">
          <mxGeometry x="-0.0029" relative="1" as="geometry">
            <mxPoint as="offset" />
          </mxGeometry>
        </mxCell>
        <mxCell id="1Y5lMBVy4oIv2StOAmjG-129" style="rounded=0;orthogonalLoop=1;jettySize=auto;html=1;exitX=1;exitY=0.5;exitDx=0;exitDy=0;startArrow=classic;startFill=1;" parent="1" edge="1">
          <mxGeometry relative="1" as="geometry">
            <mxPoint x="537.5" y="591" as="sourcePoint" />
            <mxPoint x="944.5" y="591" as="targetPoint" />
          </mxGeometry>
        </mxCell>
        <mxCell id="1Y5lMBVy4oIv2StOAmjG-130" value="查询并解析数据" style="edgeLabel;html=1;align=center;verticalAlign=middle;resizable=0;points=[];" parent="1Y5lMBVy4oIv2StOAmjG-129" vertex="1" connectable="0">
          <mxGeometry x="-0.0029" relative="1" as="geometry">
            <mxPoint as="offset" />
          </mxGeometry>
        </mxCell>
        <mxCell id="1Y5lMBVy4oIv2StOAmjG-154" style="edgeStyle=orthogonalEdgeStyle;rounded=0;orthogonalLoop=1;jettySize=auto;html=1;exitX=0.5;exitY=1;exitDx=0;exitDy=0;entryX=0;entryY=0.5;entryDx=0;entryDy=0;" parent="1" source="1Y5lMBVy4oIv2StOAmjG-12" target="1Y5lMBVy4oIv2StOAmjG-46" edge="1">
          <mxGeometry relative="1" as="geometry">
            <mxPoint x="496.5" y="-129" as="targetPoint" />
          </mxGeometry>
        </mxCell>
        <mxCell id="itscuA_wcLQaMDWyqK8Y-4" value="提交审核接口" style="edgeLabel;html=1;align=center;verticalAlign=middle;resizable=0;points=[];" parent="1Y5lMBVy4oIv2StOAmjG-154" vertex="1" connectable="0">
          <mxGeometry x="0.1694" relative="1" as="geometry">
            <mxPoint as="offset" />
          </mxGeometry>
        </mxCell>
        <mxCell id="itscuA_wcLQaMDWyqK8Y-7" style="edgeStyle=orthogonalEdgeStyle;rounded=0;orthogonalLoop=1;jettySize=auto;html=1;exitX=1;exitY=0.5;exitDx=0;exitDy=0;entryX=0.011;entryY=0.621;entryDx=0;entryDy=0;entryPerimeter=0;" parent="1" source="1Y5lMBVy4oIv2StOAmjG-74" target="1Y5lMBVy4oIv2StOAmjG-93" edge="1">
          <mxGeometry relative="1" as="geometry">
            <Array as="points">
              <mxPoint x="491" y="394" />
              <mxPoint x="717" y="394" />
              <mxPoint x="717" y="365" />
            </Array>
          </mxGeometry>
        </mxCell>
        <mxCell id="itscuA_wcLQaMDWyqK8Y-8" style="edgeStyle=orthogonalEdgeStyle;rounded=0;orthogonalLoop=1;jettySize=auto;html=1;exitX=1;exitY=0.25;exitDx=0;exitDy=0;entryX=0.011;entryY=0.404;entryDx=0;entryDy=0;entryPerimeter=0;" parent="1" source="1Y5lMBVy4oIv2StOAmjG-72" target="1Y5lMBVy4oIv2StOAmjG-93" edge="1">
          <mxGeometry relative="1" as="geometry">
            <Array as="points">
              <mxPoint x="553" y="366" />
              <mxPoint x="945" y="366" />
            </Array>
          </mxGeometry>
        </mxCell>
        <mxCell id="itscuA_wcLQaMDWyqK8Y-9" value="提交" style="edgeLabel;html=1;align=center;verticalAlign=middle;resizable=0;points=[];" parent="itscuA_wcLQaMDWyqK8Y-8" vertex="1" connectable="0">
          <mxGeometry x="-0.0188" y="2" relative="1" as="geometry">
            <mxPoint as="offset" />
          </mxGeometry>
        </mxCell>
        <mxCell id="itscuA_wcLQaMDWyqK8Y-16" style="edgeStyle=orthogonalEdgeStyle;rounded=0;orthogonalLoop=1;jettySize=auto;html=1;exitX=0.5;exitY=1;exitDx=0;exitDy=0;entryX=1;entryY=0.5;entryDx=0;entryDy=0;" parent="1" source="itscuA_wcLQaMDWyqK8Y-11" target="itscuA_wcLQaMDWyqK8Y-13" edge="1">
          <mxGeometry relative="1" as="geometry" />
        </mxCell>
        <mxCell id="itscuA_wcLQaMDWyqK8Y-11" value="存储数据" style="rounded=1;whiteSpace=wrap;html=1;shadow=0;labelBackgroundColor=none;strokeWidth=1;fontFamily=Verdana;fontSize=8;align=center;" parent="1" vertex="1">
          <mxGeometry x="944.5" y="642" width="91" height="57" as="geometry" />
        </mxCell>
        <mxCell id="itscuA_wcLQaMDWyqK8Y-12" style="edgeStyle=orthogonalEdgeStyle;rounded=0;orthogonalLoop=1;jettySize=auto;html=1;exitX=1;exitY=0.5;exitDx=0;exitDy=0;entryX=0.026;entryY=0.411;entryDx=0;entryDy=0;entryPerimeter=0;" parent="1" source="1Y5lMBVy4oIv2StOAmjG-108" target="itscuA_wcLQaMDWyqK8Y-11" edge="1">
          <mxGeometry relative="1" as="geometry" />
        </mxCell>
        <mxCell id="itscuA_wcLQaMDWyqK8Y-14" value="提交审核接口" style="edgeLabel;html=1;align=center;verticalAlign=middle;resizable=0;points=[];" parent="itscuA_wcLQaMDWyqK8Y-12" vertex="1" connectable="0">
          <mxGeometry x="-0.031" y="1" relative="1" as="geometry">
            <mxPoint as="offset" />
          </mxGeometry>
        </mxCell>
        <mxCell id="itscuA_wcLQaMDWyqK8Y-13" value="完成再次一级审批" style="whiteSpace=wrap;html=1;labelBackgroundColor=none;labelBorderColor=none;fillColor=#d5e8d4;strokeColor=#82b366;" parent="1" vertex="1">
          <mxGeometry x="752" y="699" width="106" height="46" as="geometry" />
        </mxCell>
      </root>
    </mxGraphModel>
  </diagram>
</mxfile>
